<?xml version="1.0" encoding="UTF-8" standalone="no"?>
<!-- Generator: Adobe Illustrator 27.3.1, SVG Export Plug-In . SVG Version: 6.00 Build 0)  -->

<svg
   version="1.1"
   id="Capa_1"
   x="0px"
   y="0px"
   viewBox="0 0 2734.2134 2056.733"
   xml:space="preserve"
   sodipodi:docname="logo-cfa-final.svg"
   inkscape:version="1.2.1 (9c6d41e410, 2022-07-14)"
   width="2734.2134"
   height="2056.7329"
   xmlns:inkscape="http://www.inkscape.org/namespaces/inkscape"
   xmlns:sodipodi="http://sodipodi.sourceforge.net/DTD/sodipodi-0.dtd"
   xmlns:xlink="http://www.w3.org/1999/xlink"
   xmlns="http://www.w3.org/2000/svg"
   xmlns:svg="http://www.w3.org/2000/svg"><defs
   id="defs89"><linearGradient
   inkscape:collect="always"
   id="linearGradient6247"><stop
     style="stop-color:#311238;stop-opacity:0.99607843"
     offset="0"
     id="stop6243" /><stop
     style="stop-color:#660080;stop-opacity:1"
     offset="1"
     id="stop6245" /></linearGradient>
	
	
	

	
	
	
	
<linearGradient
   inkscape:collect="always"
   xlink:href="#linearGradient6247"
   id="linearGradient6742"
   gradientUnits="userSpaceOnUse"
   x1="-1566.6689"
   y1="-778.42615"
   x2="-1513.365"
   y2="-1369.1979"
   gradientTransform="translate(2924.8606,1942.9008)" />
	
	

		
		
		
	
	
	

		
		
		
	
	
	
</defs><sodipodi:namedview
   id="namedview87"
   pagecolor="#ffffff"
   bordercolor="#000000"
   borderopacity="0.25"
   inkscape:showpageshadow="2"
   inkscape:pageopacity="0.0"
   inkscape:pagecheckerboard="0"
   inkscape:deskcolor="#d1d1d1"
   showgrid="false"
   inkscape:zoom="0.13824458"
   inkscape:cx="1728.82"
   inkscape:cy="484.64829"
   inkscape:window-width="1920"
   inkscape:window-height="1027"
   inkscape:window-x="1912"
   inkscape:window-y="717"
   inkscape:window-maximized="1"
   inkscape:current-layer="Capa_1"
   showguides="true" />
<style
   type="text/css"
   id="style2">
	.st0{fill:#FFFFFF;}
	.st1{fill:#282929;}
	.st2{fill:#079053;}
	.st3{fill:#282929;stroke:#282929;stroke-width:13;stroke-miterlimit:10;}
	.st4{fill:#FFFFFF;stroke:#FFFFFF;stroke-width:10;stroke-miterlimit:10;}
</style>











<path
   class="st2"
   d="M 1367.1067,844.60002"
   id="path469" /><path
   id="path465"
   style="fill:url(#linearGradient6742);fill-opacity:1"
   class="st1"
   d="m 734.00507,671.59992 c -24.7999,0 -45.0976,20.2997 -45.0976,45.0996 v 159.7989 c 17.9,-14.5 33.8973,-22.6 49.6972,-28 -4,-7.3 -12.7,-7.6993 -25.5,-4.1993 -1.8,0.5 -3.3972,-1.2996 -2.6972,-3.0996 21.7,-52.2999 96.5973,-56.0011 118.6972,-53.7011 1.6,0.2 4.1028,-0.4997 5.3028,-1.5997 2.7,-2.7 -7.2035,-18.6996 -13.1035,-25.0996 -1.9,-2.1 -0.8993,-5.3996 1.8007,-6.0996 28.9,-6.8 49.6997,4.6996 66.0997,13.0996 7.0999,3.7 18.0003,-1.9992 -3.5997,-26.1992 -1.5,-1.6 -0.5007,-4.3015 1.6993,-4.6015 57.1999,-7.5 96.1008,41.5012 114.30073,81.7011 11.6619,25.7026 15.1387,50.4864 13.1836,64.5645 -1.775,-2.9079 -3.6059,-5.7948 -4.5839,-7.1641 -14.10003,-21 -42.10053,-25.5012 -65.40043,-24.2012 -13.9998,0.9 -27.3965,6.5001 -38.3965,15 -7.2,5 -7.3028,15.4012 -1.8028,20.7012 1.4,1.6 2.9993,3.9 4.1993,6 -6.9,0 -14.2,-2.3 -21,-3 -5.6,-0.6 -11.2997,-1.0008 -17.0996,-0.8008 -4.5,0.2 -10.1001,0.7997 -13,5.0996 -6.8,10.9 8.7003,22.9012 15.9003,31.7012 -3.6,0.4 -7.4,0.2012 -11,0.1016 -16.5999,-0.9 -45.5004,-2.5996 -59.9003,5.9004 -4.9,2.9 -4,10.69884 1.5,12.29884 7.2999,2.3 21.7996,8.8004 24.0996,16.40039 0,2.7 -5.8997,5 -8.5996,6 -15.2,5.39998 -43.1997,3.40006 -49.5997,22 -2.8,8.59997 3.8993,9.60039 10.1993,10.40039 4.5,0.49996 9.6035,1.19926 14.1035,1.69926 3.7,0.6 7.8972,1.1003 11.1972,2.4003 -14.8999,25.4 -29.8996,52.2998 -33.0996,82.0997 0.6,0.5 1.3,1.0996 2,1.5996 1.3,-7 3.1024,-13.7985 5.4024,-20.3985 7.2,-21.4999 21.5973,-42.5016 33.1972,-60.1015 2.1,-2.5 1.9004,-6.3996 -0.5996,-8.59964 -2,-1.9 -4.8,-2.89961 -7,-3.59961 -8,-2.3 -15.9,-3.19961 -24,-4.59961 -0.1,-0.3 -0.1008,-0.40117 -0.3007,-0.70117 1.3999,-1.5 3.2996,-2.59961 5.5996,-3.59961 15.0999,-5.99997 32.6011,-2.79925 46.7011,-12.19922 9.6,-6.59998 9.0992,-17.4004 1.6993,-25.40039 -2.7,-2.9 -5.5993,-5.4 -8.6993,-7.50003 11.6,-0.8 23.4,0.099 35,1.1992 7.4,0.4 14.8993,1.20001 22.1993,-1.5 8.2999,-3.2 10.4007,-11.8 6.3007,-19 -2.6,-4.8 -6.3008,-8.9 -9.8007,-13 3.5999,0.4 7.1003,1.1008 10.4003,1.8008 9.9,2.3 22.1028,5.3988 31.8028,-0.1016 12,-7.7 7.9976,-21.1996 1.0976,-31.0996 6.5,-4.2 13.8024,-7.2012 21.4024,-8.2012 15.4922,-1.7407 35.0641,-1.1986 47.7929,8.6602 6.7834,10.9163 22.22653,37.1772 29.30473,44.7402 27.6,29.40001 65.9024,15.6993 65.9024,15.6993 0,0 16.4968,-3.0992 8.2969,15.30078 -8.2,18.39994 -29.9997,59.8004 -80.5997,79.9004 -26.99993,10.7 -54.30073,17.3006 -58.30073,102.4004 h 152.70113 c 24.8,0 45.0996,-20.3017 45.0996,-45.1016 V 716.49842 c 0,-24.7 -20.2996,-44.8985 -45.0996,-44.8985 z m 661.79893,71.2988 c -15.674,0 -30.7797,2.0816 -45.3438,6.1387 -14.4988,4.039 -28.126,9.7555 -40.8223,17.2442 -12.6893,7.3853 -24.2465,16.3422 -34.7246,26.8203 l -0.012,0.012 -0.01,0.012 c -10.3641,10.4679 -19.3068,22.0049 -26.7812,34.6699 l -0.01,0.02 -0.01,0.016 c -7.37,12.6639 -13.1957,26.2917 -17.2461,40.9355 -4.0572,14.5684 -6.1387,29.7638 -6.1387,45.4336 0,15.6741 2.0834,30.77972 6.1406,45.34382 4.0389,14.49867 9.7554,28.12967 17.2442,40.82616 7e-4,10e-4 0,0 0,0 7.3854,12.6897 16.3405,24.2449 26.8183,34.7227 l 0.014,0.01 0.012,0.012 c 10.4679,10.3642 22.005,19.3048 34.6699,26.7793 l 0.018,0.012 0.018,0.01 c 12.664,7.37 26.2826,13.1918 40.8223,17.2421 14.564,4.0572 29.6697,6.1387 45.3437,6.1387 20.3508,0 40.2431,-3.5379 59.2637,-10.6055 14.9747,-5.5136 28.7177,-13.0143 41.3672,-22.2421 l 0.02,-0.016 0.021,-0.014 c 8.4679,-6.278 10.696,-18.0737 5.2851,-26.9942 v -0.01 l -18.6093,-30.51561 -0.01,-0.01 c -6.2604,-10.19128 -20.3145,-12.99464 -29.8516,-5.51171 -6.03,4.73123 -12.7209,8.64065 -20.0195,11.72852 l -0.012,0 -0.01,0 c -11.9141,5.0659 -24.2951,7.5801 -37.3535,7.5801 -13.2702,0 -25.4333,-2.515 -36.9297,-7.4688 -11.5875,-4.99294 -21.5479,-11.70542 -30.1621,-20.31639 -8.5442,-8.64114 -15.3657,-18.6377 -20.3476,-30.10547 -4.9439,-11.38032 -7.4629,-23.55112 -7.4629,-36.60942 0,-13.0582 2.5153,-25.2335 7.4785,-36.8457 4.9951,-11.6864 11.6987,-21.6319 20.2929,-30.1328 8.6273,-8.5335 18.6081,-15.2565 30.2012,-20.2519 11.4964,-4.9538 23.6595,-7.4707 36.9297,-7.4707 13.0577,0 25.4389,2.5178 37.3535,7.5839 h 0.01 0.012 c 7.2994,3.0883 13.9902,6.9978 20.0195,11.7286 9.5016,7.4549 23.6187,4.765 29.8672,-5.5391 l 0.01,-0.01 18.5957,-30.5918 c 5.3947,-8.8939 3.1756,-20.5843 -5.1426,-26.8593 l -0.014,-0.012 -0.018,-0.01 c -12.716,-9.4849 -26.5928,-16.8907 -41.541,-22.3926 h -0.01 c -18.9973,-6.9553 -38.7887,-10.4961 -59.2363,-10.4961 z m 157.4004,4.2012 c -11.1882,0 -20.4004,9.2091 -20.4004,20.3985 v 290.40038 c 0,11.1894 9.2111,20.4004 20.4004,20.4004 h 35.9003 c 11.1894,0 20.4004,-9.211 20.4004,-20.4004 v -99.29882 c 0,-4.21059 3.1918,-7.40039 7.4024,-7.40039 h 67.5976 c 11.1894,0 20.4024,-9.21107 20.4024,-20.40047 v -35.9004 c 0,-11.1892 -9.213,-20.4003 -20.4024,-20.4003 h -67.5976 c -4.2117,0 -7.4024,-3.1879 -7.4024,-7.3985 v -35.9004 c 0,-4.2106 3.1918,-7.4004 7.4024,-7.4004 h 131.2969 c 11.1893,0 20.4003,-9.211 20.4003,-20.4004 v -35.9003 c 0,-11.1894 -9.2121,-20.3985 -20.4003,-20.3985 z m 358.2031,0 c -18.4125,0 -35.8529,3.4769 -52.1817,10.5352 -16.2148,7.0091 -30.3432,16.5952 -42.416,28.6679 -12.0993,12.0994 -21.5744,26.3331 -28.5703,42.5176 -7.0581,16.3286 -10.5351,33.7653 -10.5351,52.1778 v 176.90038 c 0,11.1894 9.211,20.4004 20.4003,20.4004 h 35.6993 c 11.1893,0 20.4003,-9.211 20.4004,-20.4004 v -35.9004 c 0,-4.2106 3.1887,-7.3984 7.4003,-7.3984 h 99.6016 c 4.2117,0 7.4004,3.1878 7.4004,7.3984 v 35.9004 c 0,11.1894 9.211,20.4004 20.4004,20.4004 h 35.9004 c 11.1893,0 20.3984,-9.2121 20.3984,-20.4004 V 880.99842 c 0,-18.4125 -3.477,-35.8492 -10.5351,-52.1778 -7.005,-16.2056 -16.5817,-30.4312 -28.668,-42.5176 -12.0863,-12.0862 -26.312,-21.6629 -42.5176,-28.6679 -16.3285,-7.0582 -33.7653,-10.5352 -52.1777,-10.5352 z m 0.1015,76.791 v 0.01 c 7.8532,0 15.1336,1.5111 22.166,4.4864 7.0959,3.0021 13.131,7.0147 18.1973,12.1699 5.171,5.2617 9.274,11.2432 12.25,18.2773 l 0.01,0.014 0.01,0.014 c 2.9522,6.8886 4.4746,14.2854 4.4746,22.1387 v 49.8007 c 0,4.2106 -3.1898,7.4004 -7.4004,7.4004 h -99.4004 c -4.2106,0 -7.3984,-3.1886 -7.3984,-7.4004 v -49.8007 c 0,-7.8533 1.5111,-15.1337 4.4863,-22.1661 3.0021,-7.0959 7.0128,-13.1309 12.168,-18.1972 5.2622,-5.1716 11.2415,-9.2742 18.2754,-12.25 l 0.017,-0.01 0.014,-0.01 c 6.8882,-2.9521 14.2873,-4.4746 22.1406,-4.4746 z m -950.36323,79.7539 c -0.3782,0.01 -0.7594,0.025 -1.1407,0.057 -6.3,0.4 -12.9008,2.4004 -17.3007,7.4004 -0.2,0.4 0.1,0.9 0.5,1 3.0999,1.2 5.8003,1.8992 8.4003,2.6992 5.1,1.4 9.7004,2.7004 14.9004,2.9004 2.5,0.1 5.1993,0.1992 7.6993,0.6992 5.2999,1.1 10.5,2.5008 15.5,4.3008 1.1999,3.6 1.4003,7.0992 -1.0997,9.1992 -1.5,1.1 -3.3,2 -5,2 -4.9,0.4 -8.3004,0.2012 -14.4003,-0.2988 -0.4,-0.1 -0.7993,0.2992 -0.6993,0.6992 2.2,6.9 9.8996,11.49964 17.0996,9.59964 2.9,-0.8 5.2028,-2.49884 7.3028,-4.29884 5,-4.3 4.6972,-9.9004 2.1972,-14.9004 3.3,1.3 6.49933,2.6988 9.69933,4.2988 0.5,0.2 1.2011,-0.5996 0.7011,-1.0996 -3.9,-4.2 -8.30003,-7.7996 -13.00003,-11.0996 -2.4,-1.6 -4.8008,-3.1996 -7.3007,-4.5996 -2.6,-1.4 -5.2004,-2.6008 -7.9004,-3.8008 -5.1562,-2.1562 -10.4856,-4.8389 -16.1582,-4.7539 z" /><rect
   style="fill:#311238;fill-opacity:0.996078;stroke-width:9.90388;stroke-linejoin:round;stroke-miterlimit:9;paint-order:fill markers stroke;stop-color:#000000"
   id="rect714"
   width="2734.2134"
   height="134.17259"
   x="0"
   y="1922.5602" /><rect
   style="fill:#660080;stroke-width:9.90388;stroke-linejoin:round;stroke-miterlimit:9;paint-order:fill markers stroke;stop-color:#000000"
   id="rect716"
   width="2734.2134"
   height="134.17259"
   x="0"
   y="1654.215" /><rect
   style="fill:#4b095b;fill-opacity:1;stroke-width:9.90388;stroke-linejoin:round;stroke-miterlimit:9;paint-order:fill markers stroke;stop-color:#000000"
   id="rect12542"
   width="2734.2134"
   height="134.17259"
   x="0"
   y="1788.3876" /></svg>
